<?xml version="1.0" encoding="UTF-8" standalone="no"?>
<!DOCTYPE svg PUBLIC "-//W3C//DTD SVG 1.1//EN"
 "http://www.w3.org/Graphics/SVG/1.1/DTD/svg11.dtd">
<!-- Generated by graphviz version 2.43.0 (0)
 -->
<!-- Title: %3 Pages: 1 -->
<svg width="298pt" height="423pt"
 viewBox="0.00 0.00 297.50 423.00" xmlns="http://www.w3.org/2000/svg" xmlns:xlink="http://www.w3.org/1999/xlink">
<g id="graph0" class="graph" transform="scale(1 1) rotate(0) translate(4 419)">
<title>%3</title>
<polygon fill="white" stroke="transparent" points="-4,4 -4,-419 293.5,-419 293.5,4 -4,4"/>
<!-- Books -->
<g id="node1" class="node">
<title>Books</title>
<path fill="#ffecb3" stroke="black" d="M210,-320.5C210,-320.5 276,-320.5 276,-320.5 282,-320.5 288,-326.5 288,-332.5 288,-332.5 288,-402.5 288,-402.5 288,-408.5 282,-414.5 276,-414.5 276,-414.5 210,-414.5 210,-414.5 204,-414.5 198,-408.5 198,-402.5 198,-402.5 198,-332.5 198,-332.5 198,-326.5 204,-320.5 210,-320.5"/>
<text text-anchor="middle" x="243" y="-400.9" font-family="Helvetica,sans-Serif" font-size="12.00">Books</text>
<polyline fill="none" stroke="black" points="198,-393.5 288,-393.5 "/>
<text text-anchor="start" x="206" y="-379.9" font-family="Helvetica,sans-Serif" font-size="12.00">book_id (PK)</text>
<text text-anchor="start" x="206" y="-366.9" font-family="Helvetica,sans-Serif" font-size="12.00"> title</text>
<text text-anchor="start" x="206" y="-353.9" font-family="Helvetica,sans-Serif" font-size="12.00"> author</text>
<text text-anchor="start" x="206" y="-340.9" font-family="Helvetica,sans-Serif" font-size="12.00"> year</text>
<text text-anchor="start" x="206" y="-327.9" font-family="Helvetica,sans-Serif" font-size="12.00"> genre</text>
</g>
<!-- Copies -->
<g id="node2" class="node">
<title>Copies</title>
<path fill="#dcedc8" stroke="black" d="M208.5,-186.5C208.5,-186.5 277.5,-186.5 277.5,-186.5 283.5,-186.5 289.5,-192.5 289.5,-198.5 289.5,-198.5 289.5,-242.5 289.5,-242.5 289.5,-248.5 283.5,-254.5 277.5,-254.5 277.5,-254.5 208.5,-254.5 208.5,-254.5 202.5,-254.5 196.5,-248.5 196.5,-242.5 196.5,-242.5 196.5,-198.5 196.5,-198.5 196.5,-192.5 202.5,-186.5 208.5,-186.5"/>
<text text-anchor="middle" x="243" y="-240.9" font-family="Helvetica,sans-Serif" font-size="12.00">Copies</text>
<polyline fill="none" stroke="black" points="196.5,-233.5 289.5,-233.5 "/>
<text text-anchor="start" x="204.5" y="-219.9" font-family="Helvetica,sans-Serif" font-size="12.00">copy_id (PK)</text>
<text text-anchor="start" x="204.5" y="-206.9" font-family="Helvetica,sans-Serif" font-size="12.00"> book_id (FK)</text>
<text text-anchor="start" x="204.5" y="-193.9" font-family="Helvetica,sans-Serif" font-size="12.00"> status</text>
</g>
<!-- Books&#45;&gt;Copies -->
<g id="edge1" class="edge">
<title>Books&#45;&gt;Copies</title>
<path fill="none" stroke="black" d="M243,-320.22C243,-302.65 243,-282.71 243,-265.36"/>
<polygon fill="black" stroke="black" points="246.5,-264.95 243,-254.95 239.5,-264.95 246.5,-264.95"/>
<text text-anchor="middle" x="234.5" y="-295.79" font-family="Helvetica,sans-Serif" font-size="10.00">1:N</text>
</g>
<!-- Borrowing -->
<g id="node4" class="node">
<title>Borrowing</title>
<path fill="#e1bee7" stroke="black" d="M193,-0.5C193,-0.5 271,-0.5 271,-0.5 277,-0.5 283,-6.5 283,-12.5 283,-12.5 283,-108.5 283,-108.5 283,-114.5 277,-120.5 271,-120.5 271,-120.5 193,-120.5 193,-120.5 187,-120.5 181,-114.5 181,-108.5 181,-108.5 181,-12.5 181,-12.5 181,-6.5 187,-0.5 193,-0.5"/>
<text text-anchor="middle" x="232" y="-106.9" font-family="Helvetica,sans-Serif" font-size="12.00">Borrowing</text>
<polyline fill="none" stroke="black" points="181,-99.5 283,-99.5 "/>
<text text-anchor="start" x="189" y="-85.9" font-family="Helvetica,sans-Serif" font-size="12.00">borrow_id (PK)</text>
<text text-anchor="start" x="189" y="-72.9" font-family="Helvetica,sans-Serif" font-size="12.00"> user_id (FK)</text>
<text text-anchor="start" x="189" y="-59.9" font-family="Helvetica,sans-Serif" font-size="12.00"> copy_id (FK)</text>
<text text-anchor="start" x="189" y="-46.9" font-family="Helvetica,sans-Serif" font-size="12.00"> date</text>
<text text-anchor="start" x="189" y="-33.9" font-family="Helvetica,sans-Serif" font-size="12.00"> due</text>
<text text-anchor="start" x="189" y="-20.9" font-family="Helvetica,sans-Serif" font-size="12.00"> return_date</text>
<text text-anchor="start" x="189" y="-7.9" font-family="Helvetica,sans-Serif" font-size="12.00"> status</text>
</g>
<!-- Copies&#45;&gt;Borrowing -->
<g id="edge2" class="edge">
<title>Copies&#45;&gt;Borrowing</title>
<path fill="none" stroke="black" d="M240.69,-186.38C239.57,-170.2 238.17,-150.08 236.82,-130.76"/>
<polygon fill="black" stroke="black" points="240.31,-130.49 236.13,-120.75 233.33,-130.97 240.31,-130.49"/>
<text text-anchor="middle" x="230.26" y="-161.57" font-family="Helvetica,sans-Serif" font-size="10.00">1:N</text>
</g>
<!-- Reservations -->
<g id="node5" class="node">
<title>Reservations</title>
<path fill="#f8bbd0" stroke="black" d="M12,-7C12,-7 116,-7 116,-7 122,-7 128,-13 128,-19 128,-19 128,-102 128,-102 128,-108 122,-114 116,-114 116,-114 12,-114 12,-114 6,-114 0,-108 0,-102 0,-102 0,-19 0,-19 0,-13 6,-7 12,-7"/>
<text text-anchor="middle" x="64" y="-100.4" font-family="Helvetica,sans-Serif" font-size="12.00">Reservations</text>
<polyline fill="none" stroke="black" points="0,-93 128,-93 "/>
<text text-anchor="start" x="8" y="-79.4" font-family="Helvetica,sans-Serif" font-size="12.00">reservation_id (PK)</text>
<text text-anchor="start" x="8" y="-66.4" font-family="Helvetica,sans-Serif" font-size="12.00"> user_id (FK)</text>
<text text-anchor="start" x="8" y="-53.4" font-family="Helvetica,sans-Serif" font-size="12.00"> copy_id (FK)</text>
<text text-anchor="start" x="8" y="-40.4" font-family="Helvetica,sans-Serif" font-size="12.00"> reservation_date</text>
<text text-anchor="start" x="8" y="-27.4" font-family="Helvetica,sans-Serif" font-size="12.00"> expiration_date</text>
<text text-anchor="start" x="8" y="-14.4" font-family="Helvetica,sans-Serif" font-size="12.00"> status</text>
</g>
<!-- Copies&#45;&gt;Reservations -->
<g id="edge3" class="edge">
<title>Copies&#45;&gt;Reservations</title>
<path fill="none" stroke="black" d="M205.48,-186.38C184.01,-167.43 156.45,-143.11 131.36,-120.96"/>
<polygon fill="black" stroke="black" points="133.48,-118.16 123.67,-114.17 128.85,-123.41 133.48,-118.16"/>
<text text-anchor="middle" x="159.92" y="-156.67" font-family="Helvetica,sans-Serif" font-size="10.00">1:N</text>
</g>
<!-- Users -->
<g id="node3" class="node">
<title>Users</title>
<path fill="#bbdefb" stroke="black" d="M46.5,-320.5C46.5,-320.5 109.5,-320.5 109.5,-320.5 115.5,-320.5 121.5,-326.5 121.5,-332.5 121.5,-332.5 121.5,-402.5 121.5,-402.5 121.5,-408.5 115.5,-414.5 109.5,-414.5 109.5,-414.5 46.5,-414.5 46.5,-414.5 40.5,-414.5 34.5,-408.5 34.5,-402.5 34.5,-402.5 34.5,-332.5 34.5,-332.5 34.5,-326.5 40.5,-320.5 46.5,-320.5"/>
<text text-anchor="middle" x="78" y="-400.9" font-family="Helvetica,sans-Serif" font-size="12.00">Users</text>
<polyline fill="none" stroke="black" points="34.5,-393.5 121.5,-393.5 "/>
<text text-anchor="start" x="42.5" y="-379.9" font-family="Helvetica,sans-Serif" font-size="12.00">user_id (PK)</text>
<text text-anchor="start" x="42.5" y="-366.9" font-family="Helvetica,sans-Serif" font-size="12.00"> name</text>
<text text-anchor="start" x="42.5" y="-353.9" font-family="Helvetica,sans-Serif" font-size="12.00"> email</text>
<text text-anchor="start" x="42.5" y="-340.9" font-family="Helvetica,sans-Serif" font-size="12.00"> phone</text>
<text text-anchor="start" x="42.5" y="-327.9" font-family="Helvetica,sans-Serif" font-size="12.00"> type</text>
</g>
<!-- Users&#45;&gt;Borrowing -->
<g id="edge4" class="edge">
<title>Users&#45;&gt;Borrowing</title>
<path fill="none" stroke="black" d="M101.39,-320.18C126.99,-269.48 168.28,-187.7 197.58,-129.68"/>
<polygon fill="black" stroke="black" points="200.79,-131.08 202.17,-120.58 194.54,-127.93 200.79,-131.08"/>
<text text-anchor="middle" x="140.98" y="-227.93" font-family="Helvetica,sans-Serif" font-size="10.00">1:N</text>
</g>
<!-- Users&#45;&gt;Reservations -->
<g id="edge5" class="edge">
<title>Users&#45;&gt;Reservations</title>
<path fill="none" stroke="black" d="M75.87,-320.18C73.47,-267.91 69.56,-182.59 66.88,-124.34"/>
<polygon fill="black" stroke="black" points="70.37,-123.99 66.42,-114.16 63.38,-124.31 70.37,-123.99"/>
<text text-anchor="middle" x="62.88" y="-225.26" font-family="Helvetica,sans-Serif" font-size="10.00">1:N</text>
</g>
</g>
</svg>
